inDegrees=yes
name=ik_data_2024_11_07_18_20
DataType=double
version=3
OpenSimVersion=4.5.1
endheader
time	pelvis_tilt	pelvis_list	pelvis_rotation	pelvis_tx	pelvis_ty	pelvis_tz	hip_flexion_r	hip_adduction_r	hip_rotation_r	knee_angle_r	knee_angle_r_beta	ankle_angle_r	subtalar_angle_r	mtp_angle_r	hip_flexion_l	hip_adduction_l	hip_rotation_l	knee_angle_l	knee_angle_l_beta	ankle_angle_l	subtalar_angle_l	mtp_angle_l	lumbar_extension	lumbar_bending	lumbar_rotation	arm_flex_r	arm_add_r	arm_rot_r	elbow_flex_r	pro_sup_r	wrist_flex_r	wrist_dev_r	arm_flex_l	arm_add_l	arm_rot_l	elbow_flex_l	pro_sup_l	wrist_flex_l	wrist_dev_l
15.01492	-2.478611005212898	-0.8448247105190233	-14.58725704616633	0	0.9399999999999999	0	11.33546789242573	-0.7756797594857238	4.457674619574415	12.86348336608241	0.2245101380136612	-5.085493449315185	0	0	2.454430142061339	-1.47925963709423	-6.048529000636916	0.5323609789080318	0.009291451891085241	-5.085493449315185	0	0	0	0	0	0	-11.33726284898083	0	75.00327143111529	45.06967294449883	0	0	0	-11.33726284898083	0	75.00327143111529	45.06967294449883	0	0
15.0753	-2.483230987768745	-1.110134378934238	-16.52097800490055	0	0.9399999999999999	0	12.72215164917253	-1.226818006221655	6.104910385124023	18.18295740645772	0.3173524744925761	-5.081402223491115	0	0	2.325475593599107	-1.81443213517624	-7.953872066845338	0.5123397339480136	0.008942015246184603	-5.081402223491115	0	0	0	0	0	0	-11.37500098824687	0	75.00321873587843	45.06725866835342	0	0	0	-11.37500098824687	0	75.00321873587843	45.06725866835342	0	0
15.07736	-2.44923252382021	-1.342849849746702	-18.15170056413714	0	0.9399999999999999	0	14.33878851360548	-2.232595249897731	7.866153995552301	23.45355376378754	0.4093417344716009	-5.078173299112359	0	0	2.17798722995355	-2.091988549093746	-9.57480809814791	0.5138179167255882	0.008967814402599555	-5.078173299112359	0	0	0	0	0	0	-11.40619779231894	0	75.00317559843758	45.06532545633179	0	0	0	-11.40619779231894	0	75.00317559843758	45.06532545633179	0	0
15.13434	-2.288942268261807	-1.498902375571111	-19.26543795747752	0	0.9399999999999999	0	15.91313892929705	-3.517668284551204	9.586224747505085	29.48204492987518	0.5145587542472226	-5.075237103764982	0	0	1.925674386370461	-2.224512050943746	-10.68091996008091	0.5187650926370789	0.009054158910930421	-5.075237103764982	0	0	0	0	0	0	-11.43530112653006	0	75.00313554460807	45.06355189126985	0	0	0	-11.43530112653006	0	75.00313554460807	45.06355189126985	0	0
15.19553	-2.167367923343269	-1.763508836161942	-21.17371660187682	0	0.9399999999999999	0	17.93866600528784	-5.095545161430658	12.92424425147173	35.38858304079502	0.6176472916772998	-5.072709739079786	0	0	1.64794384641136	-2.488914383534724	-12.58961964061096	0.5070009692420846	0.008848836224076876	-5.072709739079786	0	0	0	0	0	0	-11.45905917392908	0	75.00310242790741	45.06204814086665	0	0	0	-11.45905917392908	0	75.00310242790741	45.06204814086665	0	0
15.25185	-2.132265563291656	-1.857266170102797	-21.8767811654449	0	0.9399999999999999	0	19.91243831230422	-5.984016982587913	15.1359843162988	41.02301843275384	0.7159867407578786	-5.070472473665612	0	0	1.5345672538693	-2.589124687661861	-13.29361929993851	0.5080050543938545	0.008866360815945646	-5.070472473665612	0	0	0	0	0	0	-11.48217789599197	0	75.00307077138403	45.06067264518575	0	0	0	-11.48217789599197	0	75.00307077138403	45.06067264518575	0	0
15.31333	-2.109819337764358	-1.850709516787812	-21.82176058673218	0	0.9399999999999999	0	21.78261199046982	-6.571489583117689	16.59776391676345	46.36172875643121	0.8091648137162608	-5.068312793788104	0	0	1.525476966616898	-2.562682487267411	-13.23193122088877	0.5046631033712087	0.008808032767160086	-5.068312793788104	0	0	0	0	0	0	-11.5057430662018	0	75.00303875123376	45.05931548979687	0	0	0	-11.5057430662018	0	75.00303875123376	45.05931548979687	0	0
15.31703	-2.109527178041893	-1.957850280059198	-22.50017113452296	0	0.9399999999999999	0	23.65709494631022	-6.588488386556389	18.83964001473698	50.91992450959779	0.8887203375594404	-5.067772634086528	0	0	1.439392314101041	-2.681736588938974	-13.9280449684008	0.5036251017476178	0.008789916221187377	-5.067772634086528	0	0	0	0	0	0	-11.50888636945455	0	75.00303373297687	45.05902966319064	0	0	0	-11.50888636945455	0	75.00303373297687	45.05902966319064	0	0
15.37568	-2.194459183902283	-2.196295807791046	-24.37844955728273	0	0.9399999999999999	0	25.52756236657207	-5.643752409861387	21.94726616457601	54.98952761758274	0.959748311043172	-5.067106260002768	0	0	1.346875298670287	-2.978337754013655	-15.78876274316775	0.5155951172143598	0.008998832402596673	-5.067106260002768	0	0	0	0	0	0	-11.5127904787436	0	75.00302750552191	45.05867600044342	0	0	0	-11.5127904787436	0	75.00302750552191	45.05867600044342	0	0
15.42559	-2.21925525176845	-2.121432544682806	-23.90833299678642	0	0.9399999999999999	0	26.81571976104228	-5.542599231189236	22.06372664135471	57.55632350850373	1.004547350566405	-5.066881013825944	0	0	1.421680521879892	-2.912115390051199	-15.32680375127853	0.5016920201665417	0.008756177582887943	-5.066881013825944	0	0	0	0	0	0	-11.51413925642055	0	75.00302536936913	45.05855589698124	0	0	0	-11.51413925642055	0	75.00302536936913	45.05855589698124	0	0
15.43858	-2.444165706395347	-2.294565736028606	-25.11151750683056	0	0.9399999999999999	0	28.38512762589015	-4.277778895345424	23.51394902360108	60.20279711239026	1.050737028521345	-5.066666832117202	0	0	1.489788624799137	-3.197444017235971	-16.50859445984052	0.5084197318891472	0.008873598303572429	-5.066666832117202	0	0	0	0	0	0	-11.51544597522593	0	75.00302331077295	45.05844115180795	0	0	0	-11.51544597522593	0	75.00302331077295	45.05844115180795	0	0
